<svg width="409" height="409" viewBox="0 0 409 409" fill="none" xmlns="http://www.w3.org/2000/svg">
<path d="M24.4441 0.798813C19.4115 2.07694 12.2221 6.39061 8.70723 10.1451C6.9498 12.0623 4.31367 16.0564 2.95566 19.0121C0.639063 23.8849 0.399414 25.0832 0.399414 31.9531C0.399414 38.823 0.639063 40.0213 2.95566 44.8941C6.31074 52.0836 10.9439 56.8765 17.8139 60.3115C20.8494 61.8293 23.885 63.1074 24.4441 63.1074C25.3229 63.1074 25.5625 65.9832 25.5625 78.2851C25.5625 93.383 25.5625 93.5428 27.5596 95.4599C28.7578 96.7381 30.4354 97.457 31.9531 97.457C33.4709 97.457 35.1484 96.7381 36.3467 95.4599C38.3438 93.5428 38.3438 93.383 38.3438 78.2851C38.3438 66.7021 38.5834 63.1074 39.3822 63.1074C41.6189 63.1074 50.4859 58.1547 53.841 55.0392C57.276 51.9238 63.1074 42.0183 63.1074 39.4621C63.1074 38.5035 72.2141 38.3437 118.227 38.3437C161.763 38.3437 173.346 38.5834 173.346 39.3023C173.346 41.6189 178.298 50.4859 181.414 53.841C184.529 57.276 194.435 63.1074 196.991 63.1074C197.95 63.1074 198.109 66.6223 198.109 82.5189V101.93L189.562 103.209C178.458 104.886 169.352 107.762 159.366 112.715C143.23 120.703 139.156 125.815 144.828 131.008C147.464 133.484 150.02 132.925 157.769 128.212C187.725 109.839 226.148 110.957 255.146 131.008C263.294 136.6 273.119 146.585 278.471 154.653C308.507 199.787 292.371 260.338 243.882 284.702C206.018 303.635 159.286 292.371 133.324 258.101C127.733 250.672 121.022 236.693 118.466 227.267C116.469 219.997 116.309 218 116.309 204.5C116.229 190.84 116.389 189.162 118.466 181.733C119.744 176.861 122.7 169.671 125.815 163.36C128.691 157.609 131.008 152.177 131.008 151.138C131.008 148.662 127.573 145.387 124.937 145.387C118.227 145.387 107.363 168.313 104.247 189.322C103.608 193.476 103.049 197.151 103.049 197.47C103.049 197.87 94.102 198.109 83.0781 198.109C66.7022 198.109 63.1074 197.95 63.1074 196.991C63.1074 194.435 57.276 184.529 53.841 181.414C50.4859 178.298 41.6189 173.346 39.3822 173.346C38.5834 173.346 38.3438 166.715 38.3438 142.99V112.555L36.3467 110.638C33.7904 108.002 30.1158 108.002 27.5596 110.638L25.5625 112.555V142.99C25.5625 168.073 25.4027 173.346 24.4441 173.346C23.885 173.346 20.8494 174.624 17.8139 176.142C10.9439 179.577 6.31074 184.37 2.95566 191.559C0.639063 196.432 0.399414 197.63 0.399414 204.5C0.399414 211.37 0.639063 212.568 2.95566 217.441C6.31074 224.63 10.9439 229.423 17.8139 232.858C20.8494 234.376 23.885 235.654 24.4441 235.654C25.4027 235.654 25.5625 244.761 25.5625 290.773C25.5625 336.786 25.4027 345.893 24.4441 345.893C23.885 345.893 20.8494 347.171 17.8139 348.688C10.9439 352.123 6.31074 356.916 2.95566 364.106C0.639063 368.979 0.399414 370.177 0.399414 377.127C0.399414 384.316 0.55918 385.035 3.35508 390.787C6.9498 398.056 11.583 402.529 19.0121 406.044C23.885 408.361 25.0832 408.601 31.9531 408.601C38.823 408.601 40.0213 408.361 44.8941 406.044C52.0836 402.689 56.8766 398.056 60.3115 391.186C61.8293 388.151 63.1074 385.115 63.1074 384.556C63.1074 383.597 72.2141 383.437 118.227 383.437C164.239 383.437 173.346 383.597 173.346 384.556C173.346 385.115 174.624 388.151 176.142 391.186C179.577 398.056 184.37 402.689 191.559 406.044C196.432 408.361 197.63 408.601 204.5 408.601C211.37 408.601 212.568 408.361 217.441 406.044C224.63 402.689 229.423 398.056 232.858 391.186C234.376 388.151 235.654 385.115 235.654 384.556C235.654 383.597 244.761 383.437 290.773 383.437C336.786 383.437 345.893 383.597 345.893 384.556C345.893 385.115 347.171 388.151 348.688 391.186C352.123 398.056 356.916 402.689 364.106 406.044C368.979 408.361 370.177 408.601 377.127 408.601C384.316 408.601 385.035 408.441 390.787 405.645C398.056 402.05 402.53 397.417 406.044 389.988C408.361 385.115 408.601 383.917 408.601 377.047C408.601 370.177 408.361 368.979 406.044 364.106C402.689 356.916 398.056 352.123 391.186 348.688C388.151 347.171 385.115 345.893 384.556 345.893C383.597 345.893 383.438 341.739 383.438 322.327V298.682L381.44 296.765C378.884 294.129 375.21 294.129 372.653 296.765L370.656 298.682V322.327C370.656 341.739 370.496 345.893 369.538 345.893C366.982 345.893 357.076 351.724 353.961 355.159C350.845 358.514 345.893 367.381 345.893 369.618C345.893 370.417 334.31 370.656 290.773 370.656C244.761 370.656 235.654 370.496 235.654 369.538C235.654 366.982 229.823 357.076 226.388 353.961C223.033 350.845 214.166 345.893 211.929 345.893C211.13 345.893 210.891 341.499 210.891 326.481V307.07L219.758 305.712C229.663 304.114 240.527 300.679 248.835 296.605C274.318 283.904 294.448 259.779 301.957 233.018C303.315 228.385 305.951 214.086 305.951 211.45C305.951 211.13 314.978 210.891 325.922 210.891C341.339 210.891 345.893 211.13 345.893 211.849C345.893 214.166 350.845 223.033 353.961 226.388C357.076 229.823 366.982 235.654 369.538 235.654C370.496 235.654 370.656 239.569 370.656 257.622V279.67L372.653 281.587C375.21 284.223 378.884 284.223 381.44 281.587L383.438 279.67V257.622C383.438 239.569 383.597 235.654 384.556 235.654C385.115 235.654 388.151 234.376 391.186 232.858C398.056 229.423 402.689 224.63 406.044 217.441C408.361 212.568 408.601 211.37 408.601 204.5C408.601 197.63 408.361 196.432 406.044 191.559C402.689 184.37 398.056 179.577 391.186 176.142C388.151 174.624 385.115 173.346 384.556 173.346C383.597 173.346 383.438 164.239 383.438 118.227C383.438 72.214 383.597 63.1074 384.556 63.1074C385.115 63.1074 388.151 61.8293 391.186 60.3115C398.056 56.8765 402.689 52.0836 406.044 44.8941C408.361 40.0213 408.601 38.823 408.601 31.9531C408.601 25.0832 408.361 23.8849 406.044 19.0121C402.53 11.583 398.056 6.94979 390.787 3.35506C385.035 0.559164 384.316 0.399399 377.127 0.399399C370.177 0.399399 368.979 0.639047 364.106 2.95565C356.916 6.31073 352.123 10.9439 348.688 17.8139C347.171 20.8494 345.893 23.8849 345.893 24.4441C345.893 25.4027 336.786 25.5625 290.773 25.5625C244.761 25.5625 235.654 25.4027 235.654 24.4441C235.654 23.8849 234.376 20.8494 232.858 17.8139C229.423 10.9439 224.63 6.31073 217.441 2.95565C212.568 0.639047 211.37 0.399399 204.5 0.399399C197.63 0.399399 196.432 0.639047 191.559 2.95565C184.37 6.31073 179.577 10.9439 176.142 17.8139C174.624 20.8494 173.346 23.8849 173.346 24.4441C173.346 25.4027 164.239 25.5625 118.227 25.5625C72.2141 25.5625 63.1074 25.4027 63.1074 24.4441C63.1074 23.8849 61.8293 20.8494 60.3115 17.8139C55.0393 7.26932 45.2936 0.878696 33.7105 0.319516C30.3555 0.15975 26.2016 0.399399 24.4441 0.798813ZM37.8645 13.7398C44.7344 15.8168 51.125 24.6039 51.125 31.9531C51.125 41.8586 41.8586 51.125 31.9531 51.125C26.9205 51.125 22.8465 49.2877 18.7725 45.1338C10.6244 37.0656 10.6244 26.8406 18.7725 18.7724C24.3643 13.1008 30.3555 11.583 37.8645 13.7398ZM210.411 13.7398C217.281 15.8168 223.672 24.6039 223.672 31.9531C223.672 41.8586 214.405 51.125 204.5 51.125C194.595 51.125 185.328 41.8586 185.328 31.9531C185.328 26.9205 187.165 22.8465 191.319 18.7724C196.911 13.1008 202.902 11.583 210.411 13.7398ZM382.958 13.7398C389.828 15.8168 396.219 24.6039 396.219 31.9531C396.219 41.8586 386.952 51.125 377.047 51.125C372.014 51.125 367.94 49.2877 363.866 45.1338C355.718 37.0656 355.718 26.8406 363.866 18.7724C369.458 13.1008 375.449 11.583 382.958 13.7398ZM345.893 39.4621C345.893 42.0183 351.724 51.9238 355.159 55.0392C358.514 58.1547 367.381 63.1074 369.698 63.1074C370.417 63.1074 370.656 74.6904 370.656 118.227C370.656 161.763 370.417 173.346 369.698 173.346C367.381 173.346 358.514 178.298 355.159 181.414C351.724 184.529 345.893 194.435 345.893 196.991C345.893 197.95 342.298 198.109 325.922 198.109H306.031L305.632 195.473C303.954 184.05 303.075 179.896 300.759 172.787C295.407 156.57 288.217 145.067 275.676 132.526C271.042 127.892 264.332 122.141 260.897 119.824C248.515 111.516 233.018 105.525 219.278 103.688C215.763 103.209 212.408 102.729 211.929 102.57C211.13 102.33 210.891 97.6967 210.891 82.6787C210.891 67.5808 211.13 63.1074 211.929 63.1074C214.166 63.1074 223.033 58.1547 226.388 55.0392C229.823 51.9238 235.654 42.0183 235.654 39.4621C235.654 38.5035 244.761 38.3437 290.773 38.3437C336.786 38.3437 345.893 38.5035 345.893 39.4621ZM37.8645 186.287C42.258 187.565 48.8883 194.195 50.1664 198.589C52.4031 206.098 50.8055 212.089 45.1338 217.681C37.0656 225.829 26.8406 225.829 18.7725 217.681C10.6244 209.612 10.6244 199.387 18.7725 191.319C24.3643 185.648 30.3555 184.13 37.8645 186.287ZM382.958 186.287C389.828 188.364 396.219 197.151 396.219 204.5C396.219 214.405 386.952 223.672 377.047 223.672C367.141 223.672 357.875 214.405 357.875 204.5C357.875 199.467 359.712 195.393 363.866 191.319C369.458 185.648 375.449 184.13 382.958 186.287ZM103.448 214.645C105.845 232.938 111.357 247.796 120.863 262.016C126.055 269.844 140.114 283.824 148.103 289.176C160.485 297.484 175.982 303.475 189.722 305.312C193.237 305.791 196.592 306.271 197.151 306.43C198.589 306.83 198.589 345.893 197.151 345.893C194.834 345.893 185.967 350.845 182.612 353.961C179.177 357.076 173.346 366.982 173.346 369.538C173.346 370.496 164.239 370.656 118.227 370.656C74.6904 370.656 63.1074 370.417 63.1074 369.618C63.1074 367.381 58.1547 358.514 55.0393 355.159C51.9238 351.724 42.0184 345.893 39.4621 345.893C38.5035 345.893 38.3438 336.786 38.3438 290.773C38.3438 247.237 38.5834 235.654 39.3822 235.654C41.6189 235.654 50.4859 230.702 53.841 227.586C57.276 224.471 63.1074 214.565 63.1074 212.009C63.1074 211.05 66.7022 210.891 82.9982 210.891H102.969L103.448 214.645ZM37.8645 358.834C44.7344 360.911 51.125 369.698 51.125 377.047C51.125 386.952 41.8586 396.219 31.9531 396.219C22.0477 396.219 12.7813 386.952 12.7813 377.047C12.7813 372.014 14.6186 367.94 18.7725 363.866C24.3643 358.195 30.3555 356.677 37.8645 358.834ZM210.411 358.834C217.281 360.911 223.672 369.698 223.672 377.047C223.672 386.952 214.405 396.219 204.5 396.219C194.595 396.219 185.328 386.952 185.328 377.047C185.328 372.014 187.165 367.94 191.319 363.866C196.911 358.195 202.902 356.677 210.411 358.834ZM382.958 358.834C389.828 360.911 396.219 369.698 396.219 377.047C396.219 386.952 386.952 396.219 377.047 396.219C367.141 396.219 357.875 386.952 357.875 377.047C357.875 372.014 359.712 367.94 363.866 363.866C369.458 358.195 375.449 356.677 382.958 358.834Z" fill="black"/>
<path fill-rule="evenodd" clip-rule="evenodd" d="M218.019 158V187.889L175 212.423V242.312L189.34 250.491V220.6L232.358 196.068V166.177L218.019 158ZM189.34 158.717L175 166.831V204.604L189.34 196.49V158.717ZM218.019 250.49V212.718L232.358 204.604V242.376L218.019 250.49Z" fill="black"/>
</svg>
