<svg width="320" height="214" viewBox="0 0 320 214" fill="none" xmlns="http://www.w3.org/2000/svg">
<path d="M34.307 85.1892C22.8167 145.295 64.9126 202.498 125.537 210.845C137.034 212.387 148.619 213.178 160.219 213.214C265.677 213.966 325.399 165.696 319.346 94.995C313.292 24.2937 234.891 -13.9972 142.765 4.72712C78.4709 17.8342 43.1127 39.0626 34.307 85.1892Z" fill="#E2E5EC"/>
<path d="M180.552 57.1628H7.21279C3.35873 57.1628 0.234375 60.2871 0.234375 64.1412V174.607C0.234375 178.461 3.35873 181.586 7.21279 181.586H180.552C184.406 181.586 187.531 178.461 187.531 174.607V64.1412C187.531 60.2871 184.406 57.1628 180.552 57.1628Z" fill="#D6DBE1"/>
<path d="M64.1981 94.0476H18.4024C16.7536 94.0476 15.417 95.3842 15.417 97.033V146.987C15.417 148.636 16.7536 149.973 18.4024 149.973H64.1981C65.8469 149.973 67.1835 148.636 67.1835 146.987V97.033C67.1835 95.3842 65.8469 94.0476 64.1981 94.0476Z" fill="#E2E5EC"/>
<path d="M42.0602 124.42C47.6004 124.42 52.0916 119.929 52.0916 114.389C52.0916 108.849 47.6004 104.357 42.0602 104.357C36.52 104.357 32.0287 108.849 32.0287 114.389C32.0287 119.929 36.52 124.42 42.0602 124.42Z" fill="#C9CCD3"/>
<path d="M57.9413 142.34H24.6585V138.4C24.6585 135.496 25.812 132.711 27.8654 130.658C29.9187 128.604 32.7036 127.451 35.6074 127.451H46.9924C49.8962 127.451 52.6811 128.604 54.7344 130.658C56.7877 132.711 57.9413 135.496 57.9413 138.4V142.34Z" fill="#C9CCD3"/>
<path d="M119.123 104.733H82.3665C80.6097 104.733 79.1855 106.158 79.1855 107.914V109.403C79.1855 111.16 80.6097 112.584 82.3665 112.584H119.123C120.88 112.584 122.304 111.16 122.304 109.403V107.914C122.304 106.158 120.88 104.733 119.123 104.733Z" fill="#F1F9FE"/>
<path opacity="0.36" d="M169.829 119.224H82.3665C80.6097 119.224 79.1855 120.648 79.1855 122.405V123.894C79.1855 125.651 80.6097 127.075 82.3665 127.075H169.829C171.586 127.075 173.01 125.651 173.01 123.894V122.405C173.01 120.648 171.586 119.224 169.829 119.224Z" fill="#F1F9FE"/>
<path opacity="0.36" d="M169.829 133.715H82.3665C80.6097 133.715 79.1855 135.139 79.1855 136.896V138.384C79.1855 140.141 80.6097 141.565 82.3665 141.565H169.829C171.586 141.565 173.01 140.141 173.01 138.384V136.896C173.01 135.139 171.586 133.715 169.829 133.715Z" fill="#F1F9FE"/>
<path d="M187.531 80.6774H0.234375V62.0884C0.234375 60.4152 0.899103 58.8104 2.08229 57.6272C3.26549 56.444 4.87023 55.7793 6.54352 55.7793H181.221C182.895 55.7793 184.499 56.444 185.683 57.6272C186.866 58.8104 187.531 60.4152 187.531 62.0884V80.6774Z" fill="#C9CCD3"/>
<path d="M140.148 151.89H136.358V168.787H140.148V151.89Z" fill="#C9CCD3"/>
<path d="M173.01 151.89H169.22V168.787H173.01V151.89Z" fill="#C9CCD3"/>
<path d="M159.76 151.89H152.894V168.787H159.76V151.89Z" fill="#C9CCD3"/>
<path d="M142.863 151.89H141.75V168.787H142.863V151.89Z" fill="#C9CCD3"/>
<path d="M167.025 151.89H165.912V168.787H167.025V151.89Z" fill="#C9CCD3"/>
<path d="M146.623 151.89H145.51V168.787H146.623V151.89Z" fill="#C9CCD3"/>
<path d="M150.217 151.89H149.104V168.787H150.217V151.89Z" fill="#C9CCD3"/>
<path d="M161.655 151.89H161.098V168.787H161.655V151.89Z" fill="#C9CCD3"/>
<path d="M164.016 151.89H163.46V168.787H164.016V151.89Z" fill="#C9CCD3"/>
</svg>
