<svg fill="none" height="30" viewBox="0 0 135 30" width="135" xmlns="http://www.w3.org/2000/svg"><g clip-rule="evenodd" fill="#000" fill-rule="evenodd"><path d="m13.7689 0v9.56648l-13.7689 7.85232v9.5667l4.58962 2.6176v-9.5669l13.76888-7.852v-9.56688zm-9.17928.229445-4.58962 2.597065v12.08969l4.58962-2.5968zm9.17928 29.373555v-12.0897l4.5896-2.5971v12.0896z"/><path d="m126.951 15.639h5.136c-.072-.6726-.324-1.2167-.755-1.632-.432-.4149-1.029-.6228-1.791-.6228-.677 0-1.241.1934-1.694.5799-.454.3864-.752.945-.896 1.6749zm8.049.9018c0 .4296-.014.7876-.043 1.0738h-8.071c.115.816.425 1.4533.928 1.9111.504.4587 1.144.6873 1.921.6873.633 0 1.165-.1432 1.597-.4294.431-.2866.719-.6944.863-1.224l2.546.6868c-.302 1.0168-.899 1.8113-1.79 2.3839-.893.5727-1.979.8589-3.259.8589-1.712 0-3.061-.5544-4.046-1.6642-.986-1.1093-1.479-2.416-1.479-3.9191 0-1.5173.471-2.8272 1.414-3.9296.942-1.1022 2.262-1.6534 3.96-1.6534 1.726 0 3.067.526 4.024 1.5781.957 1.0522 1.435 2.2655 1.435 3.6398zm-11.61-2.4265c-.388-.1717-.848-.2577-1.381-.2577-.834 0-1.528.3688-2.082 1.1061-.554.7375-.831 1.8647-.831 3.3818v3.973h-2.719v-10.823h2.719v1.9756c.273-.6154.723-1.1274 1.349-1.5354s1.269-.6118 1.931-.6118c.446 0 .842.0571 1.187.1716zm-9.667-2.6197v10.823h-2.719v-1.6323c-.359.5443-.838.9808-1.435 1.3099-.597.3293-1.27.4941-2.017.4941-1.18 0-2.137-.3578-2.87-1.0738-.734-.7157-1.101-1.6603-1.101-2.8345v-7.0864h2.719v6.4422c0 .6442.187 1.1632.561 1.5568.374.3938.878.5907 1.511.5907.834 0 1.481-.3364 1.942-1.0095.46-.6726.69-1.6176.69-2.8345v-4.7457zm-17.3059 10.9946c-1.6261 0-2.953-.5189-3.9815-1.557-1.0288-1.0377-1.5431-2.38-1.5431-4.0263 0-1.646.5143-2.988 1.5431-4.0262 1.0285-1.038 2.3554-1.5568 3.9815-1.5568 1.395 0 2.5495.3364 3.4633 1.009.9136.6733 1.4636 1.5823 1.6506 2.7272l-2.6541.5154c-.1008-.5721-.3633-1.0341-.7876-1.3849-.4246-.3507-.9533-.5262-1.5862-.5262-.8488 0-1.5251.2935-2.0284.8805-.5037.5872-.7552 1.3741-.7552 2.362s.2515 1.7753.7552 2.3623c.5033.587 1.1796.8803 2.0284.8803.6329 0 1.1548-.1611 1.5646-.4833.4101-.3217.6797-.7763.8092-1.3633l2.6541.5367c-.201 1.1311-.759 2.0222-1.6722 2.6735-.9138.6515-2.0607.9771-3.4417.9771zm-15.0408-6.8502h5.136c-.0721-.6726-.3238-1.2167-.7555-1.632-.4314-.4149-1.0285-.6228-1.7906-.6228-.6768 0-1.241.1934-1.6943.5799-.4532.3864-.752.945-.8956 1.6749zm8.049.9018c0 .4296-.0142.7876-.0429 1.0738h-8.0709c.1152.816.4244 1.4533.9281 1.9111.5034.4587 1.1437.6873 1.9205.6873.6327 0 1.1653-.1432 1.5967-.4294.4317-.2866.7194-.6944.8633-1.224l2.5463.6868c-.3022 1.0168-.8991 1.8113-1.7908 2.3839-.8925.5727-1.9784.8589-3.2587.8589-1.7121 0-3.0608-.5544-4.0459-1.6642-.9857-1.1093-1.4781-2.416-1.4781-3.9191 0-1.5173.4706-2.8272 1.4134-3.9296.942-1.1022 2.2619-1.6534 3.9599-1.6534 1.7259 0 3.0672.526 4.0244 1.5781.9565 1.0522 1.4347 2.2655 1.4347 3.6398zm-16.357 5.9484c-1.2229 0-2.2443-.3116-3.0642-.9342-.82-.6228-1.3813-1.3778-1.6833-2.2655l2.2226-.9016c.1728.5868.4747 1.0664.9064 1.4384.4314.3727.9709.5583 1.6185.5583.5035 0 .9099-.1179 1.2193-.3541.3088-.2363.464-.5262.464-.8697 0-.372-.2052-.6657-.6155-.8805-.4096-.2148-.9025-.3897-1.4779-.5262-.5755-.1359-1.1545-.3036-1.7371-.5044-.5827-.2003-1.079-.5441-1.4889-1.0308-.4101-.4865-.615-1.1093-.615-1.8685 0-.8729.3522-1.596 1.0572-2.1688.7048-.5723 1.6401-.8587 2.8052-.8587 1.065 0 2.0034.2435 2.8166.73.8126.4869 1.3338 1.124 1.5644 1.9111l-2.2012.9236c-.1441-.4867-.4172-.8699-.8199-1.149-.403-.2792-.8417-.4188-1.3163-.4188-.4314 0-.7809.0895-1.0469.2685-.2664.179-.3988.4186-.3988.7192 0 .3435.2049.6091.6145.7947.4101.1861.9065.3403 1.4896.4617.5824.1216 1.1683.2827 1.7585.4831.5898.2005 1.0896.5583 1.4996 1.0737.4101.5152.6153 1.1812.6153 1.997 0 .9447-.3888 1.7431-1.1655 2.3944-.7766.6515-1.784.9771-3.0212.9771zm-11.3077-2.3406c.8631 0 1.5571-.297 2.0824-.8909.5248-.5941.7875-1.378.7875-2.3517 0-.9732-.2627-1.7572-.7875-2.3513-.5253-.5941-1.2193-.8913-2.0824-.8913-.8777 0-1.579.2972-2.1041.8913-.5253.5941-.7875 1.3781-.7875 2.3513 0 .9737.2622 1.7576.7875 2.3517.5251.5939 1.2264.8909 2.1041.8909zm.3885 2.3406c-.6762 0-1.2947-.1289-1.8558-.3866-.5611-.2578-.9785-.6013-1.2516-1.0309v1.2459h-2.7191v-15.20383h2.7191v5.58323c.7048-.9158 1.7551-1.3741 3.1506-1.3741 1.5825 0 2.8341.5118 3.7548 1.5352.9206 1.0238 1.3814 2.3729 1.3814 4.0479 0 1.6749-.4608 3.0245-1.3814 4.0478-.9207 1.0237-2.1868 1.5354-3.798 1.5354zm-8.4807-10.9946v10.823h-2.7189v-1.6323c-.3598.5443-.8383.9808-1.4349 1.3099-.5971.3293-1.2697.4941-2.0176.4941-1.18 0-2.1365-.3578-2.8701-1.0738-.7337-.7157-1.1006-1.6603-1.1006-2.8345v-7.0864h2.7189v6.4422c0 .6442.1868 1.1632.5611 1.5568.374.3938.8773.5907 1.5106.5907.8342 0 1.4816-.3364 1.9421-1.0095.4604-.6726.6905-1.6176.6905-2.8345v-4.7457zm-15.8173-4.20894h2.9348v15.03194h-2.9348v-6.5496h-6.6249v6.5496h-2.9348v-15.03194h2.9348v5.96974h6.6249z"/></g></svg>