<svg fill="none" height="57" viewBox="0 0 257 57" width="257" xmlns="http://www.w3.org/2000/svg" xmlns:xlink="http://www.w3.org/1999/xlink"><clipPath id="a"><path d="m0 0h257v57h-257z"/></clipPath><g clip-path="url(#a)" clip-rule="evenodd" fill="#000" fill-rule="evenodd"><path d="m26.2119 0v18.1763l-26.2119 14.9194v18.1767l8.73728 4.9735v-18.1771l26.21182-14.9188v-18.17709zm-17.47462.435945-8.73728 4.934425v22.97043l8.73728-4.9339zm17.47462 55.809755v-22.9704l8.7372-4.9345v22.9702z"/><path d="m241.677 29.7141h9.778c-.138-1.2779-.617-2.3117-1.438-3.1008-.822-.7883-1.959-1.1833-3.409-1.1833-1.289 0-2.363.3675-3.225 1.1018-.864.7342-1.432 1.7955-1.706 3.1823zm15.323 1.7134c0 .8163-.027 1.4965-.082 2.0403h-15.365c.219 1.5504.809 2.7612 1.767 3.631.959.8716 2.178 1.3059 3.657 1.3059 1.205 0 2.218-.2721 3.04-.8158.821-.5446 1.369-1.3194 1.643-2.3256l4.847 1.3049c-.575 1.9319-1.711 3.4414-3.408 4.5294-1.7 1.0881-3.767 1.6319-6.204 1.6319-3.259 0-5.827-1.0534-7.702-3.162-1.877-2.1077-2.816-4.5904-2.816-7.4463 0-2.8828.897-5.3717 2.692-7.4662 1.793-2.0942 4.306-3.1415 7.539-3.1415 3.285 0 5.838.9994 7.66 2.9984 1.822 1.9992 2.732 4.3045 2.732 6.9156zm-22.102-4.6103c-.739-.3262-1.614-.4896-2.629-.4896-1.588 0-2.909.7007-3.964 2.1015-1.054 1.4013-1.581 3.543-1.581 6.4255v7.5487h-5.177v-20.5637h5.177v3.7536c.519-1.1693 1.376-2.1421 2.568-2.9173 1.191-.7752 2.415-1.1624 3.676-1.1624.849 0 1.603.1085 2.259.3261zm-18.403-4.9774v20.5637h-5.176v-3.1014c-.684 1.0342-1.596 1.8635-2.732 2.4888-1.137.6257-2.418.9388-3.84.9388-2.246 0-4.068-.6798-5.463-2.0402-1.398-1.3599-2.096-3.1546-2.096-5.3856v-13.4641h5.176v12.2401c0 1.224.356 2.2101 1.068 2.958.712.7482 1.671 1.1223 2.876 1.1223 1.588 0 2.82-.6392 3.697-1.9181.876-1.2779 1.314-3.0734 1.314-5.3855v-9.0168zm-32.945 20.8897c-3.096 0-5.622-.9859-7.58-2.9583-1.959-1.9716-2.938-4.522-2.938-7.65 0-3.1274.979-5.6772 2.938-7.6498 1.958-1.9722 4.484-2.9579 7.58-2.9579 2.655 0 4.853.6392 6.593 1.9171 1.739 1.2793 2.786 3.0064 3.142 5.1817l-5.053.9793c-.192-1.087-.691-1.9648-1.499-2.6313-.808-.6664-1.815-.9998-3.02-.9998-1.616 0-2.903.5576-3.861 1.6729-.959 1.1157-1.438 2.6108-1.438 4.4878s.479 3.3731 1.438 4.4884c.958 1.1153 2.245 1.6726 3.861 1.6726 1.205 0 2.199-.3061 2.979-.9183.781-.6112 1.294-1.475 1.54-2.5903l5.053 1.0198c-.383 2.149-1.445 3.8421-3.183 5.0796-1.74 1.2379-3.923 1.8565-6.552 1.8565zm-28.634-13.0154h9.778c-.137-1.2779-.617-2.3117-1.438-3.1008-.822-.7883-1.958-1.1833-3.409-1.1833-1.289 0-2.363.3675-3.226 1.1018-.862.7342-1.431 1.7955-1.705 3.1823zm15.323 1.7134c0 .8163-.027 1.4965-.081 2.0403h-15.365c.219 1.5504.808 2.7612 1.767 3.631.958.8716 2.177 1.3059 3.656 1.3059 1.204 0 2.218-.2721 3.04-.8158.821-.5446 1.369-1.3194 1.643-2.3256l4.847 1.3049c-.575 1.9319-1.711 3.4414-3.409 4.5294-1.699 1.0881-3.766 1.6319-6.203 1.6319-3.26 0-5.827-1.0534-7.703-3.162-1.876-2.1077-2.813-4.5904-2.813-7.4463 0-2.8828.895-5.3717 2.69-7.4662 1.794-2.0942 4.306-3.1415 7.539-3.1415 3.285 0 5.839.9994 7.661 2.9984 1.821 1.9992 2.731 4.3045 2.731 6.9156zm-31.139 11.302c-2.328 0-4.272-.592-5.833-1.775-1.561-1.1833-2.63-2.6178-3.204-4.3044l4.231-1.7131c.329 1.1149.903 2.0262 1.725 2.733.822.7081 1.849 1.0608 3.081 1.0608.959 0 1.733-.2241 2.322-.6728.587-.449.883-.9998.883-1.6525 0-.7068-.391-1.2648-1.172-1.6729-.78-.4081-1.718-.7404-2.813-.9998-1.096-.2582-2.198-.5768-3.307-.9584-1.11-.3805-2.054-1.0337-2.835-1.9585-.78-.9243-1.17-2.1076-1.17-3.5501 0-1.6585.67-3.0324 2.012-4.1207 1.342-1.0874 3.122-1.6316 5.34-1.6316 2.028 0 3.814.4627 5.362 1.387 1.547.9251 2.54 2.1356 2.979 3.6311l-4.191 1.7549c-.274-.9248-.794-1.6529-1.561-2.1831-.767-.5305-1.602-.7958-2.506-.7958-.821 0-1.486.1701-1.993.5102s-.759.7953-.759 1.3665c0 .6526.39 1.1573 1.17 1.5099.781.3536 1.726.6466 2.836.8772 1.109.2311 2.224.5372 3.347.9179 1.123.381 2.075 1.0608 2.855 2.04.781.9789 1.172 2.2443 1.172 3.7943 0 1.795-.741 3.3119-2.219 4.5494-1.479 1.2379-3.396 1.8565-5.752 1.8565zm-21.526-4.4471c1.643 0 2.964-.5643 3.964-1.6928.999-1.1287 1.499-2.6182 1.499-4.4682 0-1.8491-.5-3.3387-1.499-4.4675-1-1.1287-2.321-1.6934-3.964-1.6934-1.671 0-3.006.5647-4.006 1.6934-1 1.1288-1.499 2.6184-1.499 4.4675 0 1.85.499 3.3395 1.499 4.4682 1 1.1285 2.335 1.6928 4.006 1.6928zm.739 4.4471c-1.287 0-2.464-.2449-3.532-.7345-1.069-.4899-1.863-1.1425-2.383-1.9588v2.3673h-5.176v-28.8873h5.176v10.6081c1.342-1.74 3.341-2.6108 5.998-2.6108 3.012 0 5.395.9724 7.148 2.9169 1.752 1.9452 2.63 4.5085 2.63 7.691 0 3.1823-.878 5.7466-2.63 7.6908-1.753 1.9451-4.163 2.9173-7.231 2.9173zm-16.144-20.8897v20.5637h-5.1762v-3.1014c-.685 1.0342-1.5959 1.8635-2.7317 2.4888-1.1367.6257-2.4171.9388-3.8409.9388-2.2463 0-4.0672-.6798-5.4638-2.0402-1.3967-1.3599-2.0952-3.1546-2.0952-5.3856v-13.4641h5.176v12.2401c0 1.224.3556 2.2101 1.0681 2.958.712.7482 1.6702 1.1223 2.8758 1.1223 1.588 0 2.8205-.6392 3.6972-1.9181.8764-1.2779 1.3145-3.0734 1.3145-5.3855v-9.0168zm-30.1117-7.997h5.587v28.5607h-5.587v-12.4443h-12.6119v12.4443h-5.5869v-28.5607h5.5869v11.3425h12.6119z"/></g></svg>